<svg id="Layer_1" data-name="Layer 1" xmlns="http://www.w3.org/2000/svg" width="64" height="64" viewBox="0 0 64 64"><title>1f2ac781-c3c9-4284-ac7d-21b5067b2b1123232323213</title><path d="M52,40.4a0.85,0.85,0,0,1-.6-0.25l-6.52-6.52-6.52,6.52a0.85,0.85,0,1,1-1.2-1.2l6.52-6.52L37.14,25.9a0.85,0.85,0,1,1,1.2-1.2l6.52,6.52,6.52-6.52a0.85,0.85,0,0,1,1.2,1.2l-6.52,6.52,6.52,6.52A0.85,0.85,0,0,1,52,40.4Z"/><polygon points="31 47.45 31 17.36 21.59 26.05 11.27 26.05 11.27 38.74 21.59 38.74 31 47.45"/></svg>